<svg width="1549" height="649" viewBox="0 0 1549 649" fill="none" xmlns="http://www.w3.org/2000/svg">
<path d="M1546.76 262.273H1472.25L1395.9 148.491C1394.44 146.299 1392.13 141.49 1388.96 134.062H1388.05V262.273H1329.06V0.37207H1388.05V124.2H1388.96C1390.42 120.791 1392.86 115.92 1396.27 109.589L1468.59 0.37207H1538.91L1447.59 125.296L1546.76 262.273Z" fill="#F89A1C"/>
<path d="M1287.05 262.273H1129.98V0.37207H1281.02V48.4056H1188.98V106.667H1274.63V154.518H1188.98V214.423H1287.05V262.273Z" fill="#F89A1C"/>
<path d="M1087.98 262.273H930.909V0.37207H1081.95V48.4056H989.901V106.667H1075.56V154.518H989.901V214.423H1087.98V262.273Z" fill="#F89A1C"/>
<path d="M895.661 48.4056H820.962V262.273H761.788V48.4056H687.454V0.37207H895.661V48.4056Z" fill="#F89A1C"/>
<path d="M705.353 262.273H641.065L622.436 204.012H529.291L510.844 262.273H446.921L542.258 0.37207H612.208L705.353 262.273ZM608.92 158.718L580.794 70.6873C578.724 64.1124 577.263 56.259 576.411 47.1271H574.95C574.341 54.7979 572.819 62.4078 570.384 69.9568L541.893 158.718H608.92Z" fill="#F89A1C"/>
<path d="M450.391 262.273H382.633L341.905 194.88C338.861 189.767 335.939 185.201 333.139 181.183C330.338 177.165 327.477 173.755 324.555 170.955C321.754 168.033 318.771 165.841 315.605 164.38C312.561 162.797 309.213 162.006 305.56 162.006H289.671V262.273H230.679V0.37207H324.189C387.747 0.37207 419.526 24.1149 419.526 71.6005C419.526 80.7323 418.126 89.1945 415.325 96.987C412.525 104.658 408.568 111.598 403.454 117.808C398.34 124.017 392.13 129.375 384.825 133.88C377.641 138.385 369.605 141.916 360.717 144.473V145.203C364.613 146.421 368.387 148.43 372.04 151.23C375.693 153.909 379.224 157.075 382.633 160.727C386.042 164.38 389.269 168.337 392.313 172.599C395.479 176.739 398.34 180.817 400.897 184.835L450.391 262.273ZM289.671 44.5702V117.442H315.24C327.903 117.442 338.07 113.79 345.74 106.484C353.533 99.0569 357.429 89.8642 357.429 78.906C357.429 56.0155 343.731 44.5702 316.336 44.5702H289.671Z" fill="#F89A1C"/>
<path d="M59.9136 172.051V262.273H0.921875V0.37207H93.3362C159.329 0.37207 192.325 28.1938 192.325 83.8372C192.325 110.137 182.828 131.445 163.834 147.76C144.962 163.954 119.697 172.051 88.0397 172.051H59.9136ZM59.9136 45.666V127.305H83.1085C114.522 127.305 130.229 113.546 130.229 86.0288C130.229 59.1203 114.522 45.666 83.1085 45.666H59.9136Z" fill="#F89A1C"/>
<path d="M1548.96 643.795H1471.72L1425.29 566.967C1421.82 561.137 1418.49 555.932 1415.3 551.351C1412.1 546.771 1408.84 542.884 1405.51 539.692C1402.32 536.36 1398.92 533.862 1395.31 532.196C1391.84 530.392 1388.02 529.489 1383.86 529.489H1365.74V643.795H1298.49V345.227H1405.09C1477.55 345.227 1513.78 372.294 1513.78 426.427C1513.78 436.838 1512.18 446.485 1508.99 455.368C1505.8 464.113 1501.28 472.025 1495.45 479.104C1489.63 486.183 1482.55 492.29 1474.22 497.426C1466.03 502.562 1456.87 506.587 1446.73 509.502V510.335C1451.18 511.723 1455.48 514.013 1459.64 517.205C1463.81 520.259 1467.83 523.868 1471.72 528.032C1475.61 532.196 1479.28 536.707 1482.75 541.565C1486.36 546.285 1489.63 550.935 1492.54 555.515L1548.96 643.795ZM1365.74 395.613V478.687H1394.89C1409.33 478.687 1420.92 474.523 1429.66 466.195C1438.55 457.728 1442.99 447.248 1442.99 434.756C1442.99 408.661 1427.37 395.613 1396.14 395.613H1365.74Z" fill="#282828"/>
<path d="M1261.22 643.795H1187.93L1166.7 577.377H1060.51L1039.48 643.795H966.611L1075.29 345.227H1155.04L1261.22 643.795ZM1151.29 525.742L1119.23 425.386C1116.87 417.891 1115.2 408.938 1114.23 398.528H1112.56C1111.87 407.272 1110.13 415.948 1107.36 424.554L1074.88 525.742H1151.29Z" fill="#282828"/>
<path d="M930.8 643.795H864.382V465.154C864.382 445.86 865.215 424.554 866.881 401.235H865.215C861.745 419.557 858.622 432.743 855.846 440.794L785.888 643.795H730.922L659.715 442.876C657.772 437.462 654.649 423.582 650.346 401.235H648.472C650.277 430.661 651.179 456.479 651.179 478.687V643.795H590.591V345.227H689.072L750.077 522.202C754.935 536.36 758.475 550.588 760.695 564.885H761.945C765.692 548.367 769.648 534.001 773.812 521.786L834.817 345.227H930.8V643.795Z" fill="#282828"/>
<path d="M525.422 514.499C525.422 604.166 483.642 649 400.082 649C319.021 649 278.49 605.207 278.49 517.622V345.227H345.949V518.455C345.949 566.758 364.826 590.91 402.581 590.91C439.641 590.91 458.172 567.591 458.172 520.953V345.227H525.422V514.499Z" fill="#282828"/>
<path d="M253.297 643.795H168.349L81.3187 514.082C79.653 511.584 77.0158 506.101 73.4069 497.634H72.3658V643.795H5.11523V345.227H72.3658V486.391H73.4069C75.0725 482.504 77.8486 476.952 81.7351 469.734L164.185 345.227H244.344L140.241 487.64L253.297 643.795Z" fill="#282828"/>
</svg>
